:SAMPLES-PER-SECOND 30
:FULLY-SPECIFIED
:DEGREES
391
root  36.1154 38.1768 12.0558 -170.555 75.223 -164.064
RightUpLeg  -1.8256 -0.189527 2.19713
RightLeg  25.3936 2.21113 0.910963
RightFoot  -14.836 -0.158697 -1.90635
RightToes  5.82063e-011 0 -3.6325e-017
Spine  13.3741 -1.77266 14.7745
Spine1  10.7945 1.16593 -5.28951
HEad  -7.4427 0.595524 3.21861
LeftShoulder1  0.851775 0.985585 -27.6698
LeftArm  -1.49766 -26.2377 -44.3477
LeftForeArm  15.7229 -27.4357 -5.0651
LeftHand  -0.104844 0.296783 2.38673
RightShoulder  0.262418 -2.48851 19.9906
RightArm  0.793195 33.5962 51.1194
RightForeArm  -6.09176 26.5659 6.02671
RightHand  -1.23021 7.87863 -11.0826
LeftUpLeg  -20.1734 3.59924 8.1484
LeftLeg  19.739 -2.0781 -0.276339
LeftFoot  1.79517 0.422609 -3.7857
LeftToes  1.81573e-012 2.54609e-010 -3.45981e-011
392
root  37.0537 38.1075 11.5327 -166.792 77.3401 -159.99
RightUpLeg  0.181419 1.44655 2.29989
RightLeg  25.1085 2.71607 1.16081
RightFoot  -16.1242 -0.185204 -1.82187
RightToes  5.82063e-011 0 -3.6325e-017
Spine  13.289 -1.59629 14.4931
Spine1  12.2968 1.78281 -6.82007
HEad  -7.6042 1.66375 4.18404
LeftShoulder1  0.907417 0.693982 -26.1351
LeftArm  -4.17497 -31.14 -43.2554
LeftForeArm  13.8624 -26.9443 -5.05482
LeftHand  -0.115443 1.2215 3.05794
RightShoulder  0.441135 -1.77775 19.3951
RightArm  2.55657 40.4068 52.5536
RightForeArm  -7.30223 24.1883 5.53566
RightHand  -1.22282 8.13428 -10.8173
LeftUpLeg  -18.4009 3.07091 9.29804
LeftLeg  8.98994 -6.48495 0.422096
LeftFoot  2.66625 0.470396 -3.9925
LeftToes  1.81573e-012 2.54609e-010 -3.45981e-011
393
root  38.0005 37.9059 10.9687 -162.299 79.2774 -154.987
RightUpLeg  1.82768 3.45632 2.33422
RightLeg  26.0973 2.85851 1.29675
RightFoot  -18.0222 -0.198335 -1.32531
RightToes  5.82063e-011 0 -3.6325e-017
Spine  14.0421 -1.38769 13.3527
Spine1  12.7426 2.17183 -7.40136
HEad  -7.54324 2.56402 5.343
LeftShoulder1  1.01938 0.187053 -24.4908
LeftArm  -8.19747 -34.9128 -42.13
LeftForeArm  12.9433 -26.5905 -5.02523
LeftHand  -0.0991131 1.51108 2.76799
RightShoulder  0.618939 -1.00689 18.4184
RightArm  4.98002 46.3435 54.3091
RightForeArm  -8.79705 21.3852 5.02685
RightHand  -1.17307 7.67058 -10.7498
LeftUpLeg  -17.7907 6.56557 9.01536
LeftLeg  5.25953 -13.1866 0.950532
LeftFoot  3.26257 0.697314 -5.4533
LeftToes  1.81573e-012 2.54609e-010 -3.45981e-011
394
root  38.9284 37.522 10.2999 -158.906 80.8009 -151.436
RightUpLeg  2.15273 4.97975 1.73799
RightLeg  29.2088 2.76653 1.43437
RightFoot  -20.6974 -0.163093 -0.297796
RightToes  5.82063e-011 0 -3.6325e-017
Spine  15.3341 -1.22639 13.0588
Spine1  11.972 2.78088 -8.67132
HEad  -7.66708 2.59252 6.67295
LeftShoulder1  1.15957 -0.403046 -23.4141
LeftArm  -10.3591 -39.5972 -40.9933
LeftForeArm  11.8304 -25.3663 -4.81213
LeftHand  -0.111755 1.08402 2.89264
RightShoulder  0.646928 -0.703866 16.519
RightArm  5.55676 50.9717 55.9115
RightForeArm  -9.51168 18.222 4.56587
RightHand  -1.06897 7.23805 -10.0954
LeftUpLeg  -18.4887 6.30633 9.25753
LeftLeg  8.40384 -13.2972 -0.449603
LeftFoot  8.78948 1.1753 -7.05155
LeftToes  1.81573e-012 2.54609e-010 -3.45981e-011
395
root  39.7315 37.0953 9.63642 -160.453 81.9017 -152.951
RightUpLeg  0.988767 5.86519 0.225962
RightLeg  34.7382 2.63322 1.71923
RightFoot  -22.5873 0.0448261 1.97248
RightToes  5.82063e-011 0 -3.6325e-017
Spine  16.5725 -1.08657 10.6218
Spine1  11.9389 2.55697 -8.17299
HEad  -8.3858 2.80132 7.55433
LeftShoulder1  1.24998 -0.829997 -22.4705
LeftArm  -14.4813 -44.6131 -39.4629
LeftForeArm  12.194 -23.8916 -4.47673
LeftHand  -0.0881098 1.86178 2.61971
RightShoulder  0.775764 0.175106 14.4964
RightArm  4.23078 55.5436 56.8776
RightForeArm  -7.72841 15.4072 3.97965
RightHand  -0.757445 5.39686 -8.48031
LeftUpLeg  -20.6091 4.77996 8.86168
LeftLeg  15.1217 -10.9198 -2.56146
LeftFoot  12.3776 0.961554 -4.87569
LeftToes  1.81573e-012 2.54609e-010 -3.45981e-011
396
root  40.3972 36.7648 9.06405 -164.843 83.7055 -157.194
RightUpLeg  -1.87742 6.7016 -1.97984
RightLeg  42.6466 2.88608 2.56495
RightFoot  -21.5857 0.438597 6.78295
RightToes  5.82063e-011 0 -3.6325e-017
Spine  18.3422 -0.0770445 6.42199
Spine1  12.4444 2.48503 -5.89704
HEad  -10.1094 3.61085 6.56387
LeftShoulder1  1.36207 -1.32242 -22.0668
LeftArm  -19.1927 -49.4145 -37.4485
LeftForeArm  12.2883 -22.2885 -4.11828
LeftHand  -0.0807402 2.27735 2.61295
RightShoulder  0.926455 1.39936 11.748
RightArm  2.25755 59.7632 56.8429
RightForeArm  -9.34158 12.2608 3.30422
RightHand  -0.713848 4.51335 -8.62626
LeftUpLeg  -22.6191 4.86904 7.63433
LeftLeg  22.4187 -9.0899 -3.83968
LeftFoot  8.63862 0.452951 -2.86862
LeftToes  1.81573e-012 2.54609e-010 -3.45981e-011
397
root  40.9801 36.6618 8.45448 -165.137 86.1205 -157.746
RightUpLeg  -6.22937 6.94447 -4.24726
RightLeg  50.41 2.81343 3.27396
RightFoot  -16.3596 0.345327 9.82996
RightToes  5.82063e-011 0 -3.6325e-017
Spine  20.7091 0.436265 6.73054
Spine1  11.8095 4.28372 -9.76995
HEad  -11.7479 2.69833 7.04398
LeftShoulder1  1.66598 -3.10496 -18.5893
LeftArm  -23.3269 -52.8953 -36.8332
LeftForeArm  11.2549 -20.2718 -3.52499
LeftHand  -0.0872629 2.24712 2.86673
RightShoulder  0.871581 1.19108 11.5347
RightArm  0.125083 63.4893 55.3764
RightForeArm  -11.3534 8.9068 2.62542
RightHand  -0.540504 3.70285 -7.14591
LeftUpLeg  -23.196 7.34838 6.07895
LeftLeg  26.0976 -8.96579 -4.41483
LeftFoot  6.54886 0.0877948 -0.826455
LeftToes  1.81573e-012 2.54609e-010 -3.45981e-011
398
root  41.4897 36.745 7.85221 -153.033 87.7059 -146.168
RightUpLeg  -10.3537 5.49553 -5.29229
RightLeg  55.6719 1.78802 2.38159
RightFoot  -10.2546 -0.140545 7.63183
RightToes  5.82063e-011 0 -3.6325e-017
Spine  21.7321 0.547212 6.35472
Spine1  12.1669 4.6887 -10.5449
HEad  -12.4882 3.03654 5.71133
LeftShoulder1  1.72951 -3.68737 -17.3978
LeftArm  -26.375 -56.1825 -33.6822
LeftForeArm  7.72125 -17.6632 -2.55017
LeftHand  -0.0660351 2.54908 2.12816
RightShoulder  0.97322 2.38843 9.15968
RightArm  -1.70598 66.7143 55.2574
RightForeArm  -13.5969 5.09336 1.72801
RightHand  -0.347404 2.46488 -5.33397
LeftUpLeg  -23.2931 9.41394 5.3564
LeftLeg  27.6955 -8.846 -4.6667
LeftFoot  5.1358 -0.0480686 0.113844
LeftToes  1.81573e-012 2.54609e-010 -3.45981e-011
